<svg width="40" height="40" viewBox="0 0 40 40" fill="none" xmlns="http://www.w3.org/2000/svg">
<circle cx="20" cy="20" r="20" fill="#F6F7FC"/>
<g clip-path="url(#clip0_714_14702)">
<path d="M20.0003 28.3332C24.6027 28.3332 28.3337 24.6022 28.3337 19.9998C28.3337 15.3975 24.6027 11.6665 20.0003 11.6665C15.398 11.6665 11.667 15.3975 11.667 19.9998C11.667 24.6022 15.398 28.3332 20.0003 28.3332Z" stroke="#303237" stroke-width="2" stroke-linecap="round" stroke-linejoin="round"/>
<path d="M12.5 20H28.3333" stroke="#303237" stroke-width="2" stroke-linecap="round" stroke-linejoin="round"/>
<path d="M20 11.835C22.062 13.9392 23.3333 16.8211 23.3333 20C23.3333 23.1788 22.062 26.0607 20 28.1649" stroke="#303237" stroke-width="2" stroke-linecap="round" stroke-linejoin="round"/>
<path d="M20.0003 11.835C17.9384 13.9392 16.667 16.8211 16.667 20C16.667 23.1788 17.9384 26.0607 20.0003 28.1649" stroke="#303237" stroke-width="2" stroke-linecap="round" stroke-linejoin="round"/>
</g>
<defs>
<clipPath id="clip0_714_14702">
<rect width="20" height="20" fill="white" transform="translate(10 10)"/>
</clipPath>
</defs>
</svg>
