<svg width="42" height="42" viewBox="0 0 42 42" fill="none" xmlns="http://www.w3.org/2000/svg">
<circle cx="21.0458" cy="20.8932" r="20.4362" fill="#B3ADAD"/>
<path d="M32.0495 20.8929C32.0501 21.1598 31.9817 21.4223 31.8508 21.6549C31.72 21.8875 31.5312 22.0823 31.3028 22.2203L17.1468 30.8801C16.9081 31.0262 16.6348 31.106 16.3549 31.1112C16.0751 31.1164 15.799 31.0468 15.5551 30.9096C15.3135 30.7745 15.1123 30.5775 14.972 30.3389C14.8318 30.1002 14.7577 29.8285 14.7573 29.5517V12.234C14.7577 11.9573 14.8318 11.6856 14.972 11.4469C15.1123 11.2083 15.3135 11.0113 15.5551 10.8762C15.799 10.739 16.0751 10.6694 16.3549 10.6746C16.6348 10.6798 16.9081 10.7596 17.1468 10.9057L31.3028 19.5655C31.5312 19.7035 31.72 19.8983 31.8508 20.1309C31.9817 20.3635 32.0501 20.626 32.0495 20.8929Z" fill="black"/>
</svg>
