<svg width="26" height="26" viewBox="0 0 26 26" fill="none" xmlns="http://www.w3.org/2000/svg">
<g id="ph:play-fill">
<path id="Vector" d="M24.0495 12.8929C24.0501 13.1598 23.9817 13.4223 23.8508 13.6549C23.72 13.8875 23.5312 14.0823 23.3028 14.2203L9.14677 22.8801C8.90811 23.0262 8.63475 23.106 8.35494 23.1112C8.07514 23.1164 7.79902 23.0468 7.55511 22.9096C7.31352 22.7745 7.11227 22.5775 6.97205 22.3389C6.83183 22.1002 6.75771 21.8285 6.75731 21.5517V4.23405C6.75771 3.95726 6.83183 3.68558 6.97205 3.44693C7.11227 3.20829 7.31352 3.0113 7.55511 2.87622C7.79902 2.73901 8.07514 2.6694 8.35494 2.67459C8.63475 2.67977 8.90811 2.75955 9.14677 2.9057L23.3028 11.5655C23.5312 11.7035 23.72 11.8983 23.8508 12.1309C23.9817 12.3635 24.0501 12.626 24.0495 12.8929Z" fill="black"/>
</g>
</svg>
