<svg width="32" height="32" viewBox="0 0 32 32" fill="none" xmlns="http://www.w3.org/2000/svg">
<path d="M16.2998 26.4907C21.8227 26.4907 26.2998 22.0136 26.2998 16.4907C26.2998 10.9679 21.8227 6.49072 16.2998 6.49072C10.777 6.49072 6.2998 10.9679 6.2998 16.4907C6.2998 22.0136 10.777 26.4907 16.2998 26.4907Z" fill="#3B4BC1" stroke="#3B4BC1" stroke-width="2" stroke-linecap="round" stroke-linejoin="round"/>
<path d="M9.5 20.9907C9.5 19.8861 10.8954 19.4907 12 19.4907H21C22.1046 19.4907 23 19.8859 23 20.9905" fill="#3B4BC1"/>
<path d="M9.5 20.9907C9.5 19.8861 10.8954 19.4907 12 19.4907H21C22.1046 19.4907 23 19.8859 23 20.9905" stroke="white" stroke-width="2" stroke-linecap="round" stroke-linejoin="round"/>
<path d="M16.5996 15.4907C18.2565 15.4907 19.5996 14.1476 19.5996 12.4907C19.5996 10.8339 18.2565 9.49072 16.5996 9.49072C14.9428 9.49072 13.5996 10.8339 13.5996 12.4907C13.5996 14.1476 14.9428 15.4907 16.5996 15.4907Z" fill="white" stroke="white" stroke-width="2" stroke-linecap="round" stroke-linejoin="round"/>
<path d="M22.7803 19.991C22.7803 22.1183 24.5263 20.6767 23.153 22.3013C21.7796 23.9259 19.8752 25.0114 17.7775 25.3654C15.6799 25.7194 13.5247 25.319 11.6943 24.2351C9.7998 22.991 9.7998 22.991 8.7998 21.491L11.6943 19.4445C11.9312 20.1266 14.1022 18.7515 14.7235 19.1194C15.3447 19.4873 16.0762 19.6232 16.7882 19.503C17.5002 19.3829 18.8141 19.5423 19.2803 18.9909C19.7464 18.4395 20.2803 20.213 20.2803 19.4909L22.7803 19.991Z" fill="white"/>
<path d="M7.93935 9.34234C6.61981 10.8856 5.75316 12.7639 5.43538 14.7694C5.1176 16.7748 5.36109 18.8291 6.13889 20.7046C6.91668 22.5802 8.19843 24.2039 9.84217 25.3959C11.4859 26.5879 13.4275 27.3017 15.4519 27.4582C17.4763 27.6147 19.5046 27.2078 21.312 26.2827C23.1194 25.3575 24.6355 23.9501 25.6923 22.2164C26.7492 20.4826 27.3055 18.4902 27.2998 16.4597C27.294 14.4293 26.7264 12.4401 25.6597 10.7123L23.8548 11.8267C24.7158 13.2212 25.1739 14.8269 25.1786 16.4658C25.1832 18.1047 24.7342 19.7129 23.8811 21.1123C23.0281 22.5117 21.8043 23.6477 20.3455 24.3944C18.8866 25.1412 17.2495 25.4696 15.6154 25.3433C13.9814 25.217 12.4142 24.6408 11.0875 23.6787C9.76068 22.7166 8.72611 21.406 8.0983 19.8921C7.4705 18.3782 7.27396 16.7201 7.53046 15.1013C7.78696 13.4826 8.48649 11.9665 9.55157 10.7209L7.93935 9.34234Z" fill="#3B4BC1"/>
</svg>
