<svg width="25" height="24" viewBox="0 0 25 24" fill="none" xmlns="http://www.w3.org/2000/svg">
<path d="M9.90039 11C12.1095 11 13.9004 9.20914 13.9004 7C13.9004 4.79086 12.1095 3 9.90039 3C7.69125 3 5.90039 4.79086 5.90039 7C5.90039 9.20914 7.69125 11 9.90039 11Z" fill="#3B4BC1" stroke="#3B4BC1" stroke-width="2" stroke-linecap="round" stroke-linejoin="round"/>
<path d="M2.90039 21V17C2.90039 15.8954 3.79582 15 4.90039 15H14.9004C16.005 15 16.9004 15.8954 16.9004 17V21" fill="#3B4BC1"/>
<path d="M2.90039 21V17C2.90039 15.8954 3.79582 15 4.90039 15H14.9004C16.005 15 16.9004 15.8954 16.9004 17V21" stroke="#3B4BC1" stroke-width="2" stroke-linecap="round" stroke-linejoin="round"/>
<path d="M16.9004 3C17.7608 3.2203 18.5234 3.7207 19.068 4.42231C19.6126 5.12392 19.9082 5.98683 19.9082 6.875C19.9082 7.76317 19.6126 8.62608 19.068 9.32769C18.5234 10.0293 17.7608 10.5297 16.9004 10.75" fill="#3B4BC1"/>
<path d="M16.9004 3C17.7608 3.2203 18.5234 3.7207 19.068 4.42231C19.6126 5.12392 19.9082 5.98683 19.9082 6.875C19.9082 7.76317 19.6126 8.62608 19.068 9.32769C18.5234 10.0293 17.7608 10.5297 16.9004 10.75" stroke="#3B4BC1" stroke-width="2" stroke-linecap="round" stroke-linejoin="round"/>
<path d="M19.9004 15H20.9004C22.005 15 22.9004 15.8954 22.9004 17V21" fill="#3B4BC1"/>
<path d="M19.9004 15H20.9004C22.005 15 22.9004 15.8954 22.9004 17V21" stroke="#3B4BC1" stroke-width="2" stroke-linecap="round" stroke-linejoin="round"/>
</svg>
