<svg width="40" height="39" viewBox="0 0 40 39" fill="none" xmlns="http://www.w3.org/2000/svg">
<g id="verified Check">
<path id="verified" d="M17.0059 2.20217C17.5696 -0.734056 21.7725 -0.734056 22.3361 2.20217C22.7522 4.36994 25.4446 5.16049 26.9666 3.56181C29.0282 1.39642 32.564 3.6687 31.4507 6.44353C30.6288 8.49214 32.4663 10.6128 34.611 10.0908C37.5161 9.38373 39.262 13.2068 36.8253 14.9393C35.0263 16.2183 35.4256 18.9958 37.5121 19.7162C40.3382 20.6919 39.7401 24.8521 36.7535 24.9921C34.5486 25.0955 33.3829 27.6479 34.7487 29.382C36.5987 31.7308 33.8464 34.9072 31.2582 33.4103C29.3474 32.3052 26.9868 33.8222 27.1983 36.0194C27.4847 38.9955 23.4521 40.1796 22.084 37.5211C21.074 35.5584 18.268 35.5584 17.258 37.5211C15.89 40.1796 11.8573 38.9955 12.1437 36.0194C12.3552 33.8222 9.99464 32.3052 8.08385 33.4103C5.4957 34.9072 2.74336 31.7308 4.59332 29.382C5.95911 27.6479 4.79345 25.0955 2.58852 24.9921C-0.398031 24.8521 -0.996169 20.6919 1.82996 19.7162C3.91644 18.9958 4.31578 16.2183 2.51677 14.9393C0.0800252 13.2068 1.82599 9.38373 4.73101 10.0908C6.87574 10.6128 8.7133 8.49214 7.89137 6.44353C6.77808 3.6687 10.3138 1.39643 12.3754 3.56181C13.8975 5.16049 16.5898 4.36994 17.0059 2.20217Z" fill="#F2AB1B"/>
<g id="check-good-yes">
<path id="Vector" d="M11.7891 19.844L17.0433 25.0982L27.5517 14.5898" stroke="white" stroke-width="2.10168" stroke-linecap="round" stroke-linejoin="round"/>
</g>
</g>
</svg>
