<svg width="40" height="40" viewBox="0 0 40 40" fill="none" xmlns="http://www.w3.org/2000/svg">
<circle cx="20" cy="20" r="20" fill="#F6F7FC"/>
<path d="M16.2022 14.4585C16.7347 14.4585 17.2272 14.5002 17.6772 14.6235C18.128 14.706 18.4972 14.871 18.8247 15.0768C19.153 15.2827 19.3988 15.5718 19.5622 15.9427C19.7263 16.3135 19.8088 16.7677 19.8088 17.2618C19.8088 17.8393 19.6855 18.3335 19.3988 18.7043C19.153 19.076 18.743 19.4052 18.2513 19.6527C18.948 19.8593 19.4805 20.2302 19.8088 20.7243C20.1363 21.2193 20.3413 21.8377 20.3413 22.5385C20.3413 23.116 20.218 23.6102 20.013 24.0227C19.8088 24.4352 19.4805 24.806 19.1113 25.0535C18.7103 25.3188 18.267 25.5138 17.8005 25.6302C17.3088 25.7543 16.8172 25.8368 16.3255 25.8368H10.833V14.4585H16.2022ZM15.8738 19.0752C16.3247 19.0752 16.6938 18.9518 16.9805 18.746C17.2672 18.5402 17.3905 18.1685 17.3905 17.7152C17.3905 17.4677 17.3488 17.2202 17.2672 17.056C17.1855 16.891 17.0622 16.7668 16.8988 16.6435C16.7318 16.5499 16.5522 16.4805 16.3655 16.4377C16.1605 16.396 15.9563 16.396 15.7097 16.396H13.333V19.076L15.8738 19.0752ZM15.9972 23.9402C16.243 23.9402 16.4888 23.8985 16.6938 23.8577C16.8988 23.816 17.1038 23.7343 17.2672 23.6102C17.4342 23.4895 17.5739 23.3351 17.6772 23.1568C17.7588 22.951 17.8413 22.7035 17.8413 22.4152C17.8413 21.8377 17.6772 21.4252 17.3497 21.1368C17.0213 20.8893 16.5705 20.766 16.038 20.766H13.333V23.941L15.9972 23.9402ZM23.9072 23.8985C24.2347 24.2285 24.7263 24.3935 25.3822 24.3935C25.833 24.3935 26.243 24.2702 26.5705 24.0643C26.8988 23.8168 27.1038 23.5693 27.1855 23.3218H29.1938C28.8655 24.311 28.3738 25.0118 27.7188 25.4652C27.0622 25.8777 26.2838 26.1252 25.3413 26.1252C24.7383 26.127 24.1403 26.0151 23.5788 25.7952C23.0736 25.6057 22.623 25.2942 22.2672 24.8885C21.8866 24.509 21.6053 24.0416 21.448 23.5277C21.243 22.9918 21.1605 22.4152 21.1605 21.7552C21.1605 21.1368 21.243 20.5602 21.448 20.0235C21.6454 19.5068 21.9373 19.0315 22.3088 18.6218C22.6772 18.251 23.128 17.9218 23.6197 17.7152C24.1669 17.4952 24.7515 17.3832 25.3413 17.3852C26.038 17.3852 26.653 17.5093 27.1855 17.7977C27.7188 18.086 28.128 18.416 28.4555 18.911C28.7838 19.3643 29.0305 19.9002 29.1938 20.4777C29.2755 21.0543 29.3163 21.6318 29.2755 22.291H23.333C23.333 22.951 23.5788 23.5693 23.9072 23.8993M26.4888 19.571C26.2022 19.2827 25.7513 19.1177 25.218 19.1177C24.9053 19.113 24.596 19.1836 24.3163 19.3235C24.0705 19.4477 23.9072 19.6127 23.743 19.7777C23.5921 19.937 23.4923 20.1378 23.4563 20.3543C23.4147 20.561 23.3738 20.7252 23.3738 20.8902H27.0622C26.9805 20.2718 26.7755 19.8602 26.4888 19.571ZM22.8822 15.2418H27.4722V16.3552H22.883L22.8822 15.2418Z" fill="#303237"/>
</svg>
