<svg width="342" height="45" viewBox="0 0 342 45" fill="none" xmlns="http://www.w3.org/2000/svg">
<g clip-path="url(#clip0_398_9748)">
<rect width="42.5501" height="44.1495" transform="matrix(1 0 0 -1 0 44.1492)" fill="#E64A21"/>
<circle cx="38.445" cy="38.445" r="38.445" transform="matrix(-4.37114e-08 1 1 4.37114e-08 -33.7852 -34.9504)" fill="#F0A202"/>
</g>
<rect width="42.5501" height="44.1495" transform="matrix(1 0 0 -1 42.5498 44.1489)" fill="#F6F8F9"/>
<circle cx="9.20409" cy="9.20409" r="9.20409" transform="matrix(1 0 0 -1 54.6211 31.4744)" fill="#E64A21"/>
<circle cx="4.67749" cy="4.67749" r="4.67749" transform="matrix(1 0 0 -1 91.7441 35.2407)" fill="#3B4BC1"/>
<circle cx="4.67749" cy="4.67749" r="4.67749" transform="matrix(1 0 0 -1 91.7441 18.022)" fill="#3B4BC1"/>
<circle cx="4.67749" cy="4.67749" r="4.67749" transform="matrix(1 0 0 -1 111.875 35.2407)" fill="#3B4BC1"/>
<circle cx="4.67749" cy="4.67749" r="4.67749" transform="matrix(1 0 0 -1 111.875 18.022)" fill="#3B4BC1"/>
<g clip-path="url(#clip1_398_9748)">
<circle cx="41.5031" cy="41.5031" r="41.5031" transform="matrix(1 0 0 -1 87.084 84.1709)" fill="#E64A21"/>
<circle cx="17.2011" cy="17.2011" r="17.2011" transform="matrix(-4.37114e-08 1 1 4.37114e-08 112.562 23.3264)" fill="#1E2C95"/>
</g>
<rect width="42.5501" height="44.1495" transform="matrix(1 0 0 -1 170.2 44.1489)" fill="#F0A202"/>
<circle cx="4.67749" cy="4.67749" r="4.67749" transform="matrix(1 0 0 -1 176.789 35.2405)" fill="#FCFDFD"/>
<circle cx="4.67749" cy="4.67749" r="4.67749" transform="matrix(1 0 0 -1 176.789 18.0217)" fill="#FCFDFD"/>
<circle cx="4.67749" cy="4.67749" r="4.67749" transform="matrix(1 0 0 -1 196.92 35.2405)" fill="#FCFDFD"/>
<circle cx="4.67749" cy="4.67749" r="4.67749" transform="matrix(1 0 0 -1 196.92 18.0217)" fill="#FCFDFD"/>
<g clip-path="url(#clip2_398_9748)">
<circle cx="39.1095" cy="39.1095" r="39.1095" transform="matrix(0.87899 -0.47684 -0.47684 -0.87899 200.021 92.7927)" fill="#E64A21"/>
</g>
<rect width="42.5501" height="44.1495" transform="matrix(1 0 0 -1 256.899 44.1492)" fill="#D9D9D9"/>
<rect width="42.5501" height="44.1495" transform="matrix(1 0 0 -1 299.45 44.1492)" fill="#1E2C95"/>
<defs>
<clipPath id="clip0_398_9748">
<rect width="42.5501" height="44.1495" fill="white" transform="matrix(1 0 0 -1 0 44.1492)"/>
</clipPath>
<clipPath id="clip1_398_9748">
<rect width="42.5501" height="44.1193" fill="white" transform="matrix(1 0 0 -1 127.65 44.1492)"/>
</clipPath>
<clipPath id="clip2_398_9748">
<rect width="42.5501" height="44.1495" fill="white" transform="matrix(-4.37114e-08 -1 -1 4.37114e-08 256.899 44.1492)"/>
</clipPath>
</defs>
</svg>
