<svg width="41" height="40" viewBox="0 0 41 40" fill="none" xmlns="http://www.w3.org/2000/svg">
<circle cx="20.5" cy="20" r="20" fill="#E0E7EB"/>
<path d="M32.6023 16.338L21.3523 10.338C21.2438 10.2802 21.1227 10.25 20.9998 10.25C20.8768 10.25 20.7558 10.2802 20.6473 10.338L9.39727 16.338C9.27727 16.402 9.17692 16.4973 9.10694 16.6139C9.03696 16.7305 9 16.8639 9 16.9999C9 17.1358 9.03696 17.2693 9.10694 17.3858C9.17692 17.5024 9.27727 17.5978 9.39727 17.6618L11.9998 19.0502V23.5896C11.999 23.958 12.1346 24.3136 12.3804 24.588C13.6085 25.9558 16.3601 28.2499 20.9998 28.2499C22.5382 28.2626 24.065 27.9839 25.4998 27.4286V30.4999C25.4998 30.6988 25.5788 30.8896 25.7194 31.0302C25.8601 31.1709 26.0509 31.2499 26.2498 31.2499C26.4487 31.2499 26.6394 31.1709 26.7801 31.0302C26.9207 30.8896 26.9998 30.6988 26.9998 30.4999V26.7039C27.9778 26.1394 28.8616 25.4254 29.6191 24.588C29.865 24.3136 30.0005 23.958 29.9998 23.5896V19.0502L32.6023 17.6618C32.7223 17.5978 32.8226 17.5024 32.8926 17.3858C32.9626 17.2693 32.9995 17.1358 32.9995 16.9999C32.9995 16.8639 32.9626 16.7305 32.8926 16.6139C32.8226 16.4973 32.7223 16.402 32.6023 16.338ZM20.9998 26.7499C16.9432 26.7499 14.5573 24.768 13.4998 23.5896V19.8499L20.6473 23.6618C20.7558 23.7195 20.8768 23.7498 20.9998 23.7498C21.1227 23.7498 21.2438 23.7195 21.3523 23.6618L25.4998 21.4502V25.7946C24.3185 26.3458 22.8298 26.7499 20.9998 26.7499ZM28.4998 23.5858C28.0502 24.0847 27.5472 24.5327 26.9998 24.9218V20.6496L28.4998 19.8499V23.5858ZM26.6248 19.1505L26.6041 19.1383L21.3541 16.338C21.179 16.2485 20.9757 16.2315 20.7881 16.2904C20.6004 16.3494 20.4435 16.4798 20.351 16.6534C20.2586 16.827 20.238 17.0299 20.2938 17.2186C20.3495 17.4072 20.4771 17.5663 20.6491 17.6618L25.031 19.9999L20.9998 22.1496L11.3435 16.9999L20.9998 11.8502L30.656 16.9999L26.6248 19.1505Z" fill="#3B4BC1"/>
</svg>
