<svg width="31" height="31" viewBox="0 0 31 31" fill="none" xmlns="http://www.w3.org/2000/svg">
<g id="headphone-music-alt">
<path id="Vector" d="M9.06558 27.8711H4.42273C3.73238 27.8711 3.17273 27.3115 3.17273 26.6211V19.1211C3.17273 18.4307 3.73238 17.8711 4.42273 17.8711H9.06559C9.75594 17.8711 10.3156 18.4307 10.3156 19.1211V26.6211C10.3156 27.3115 9.75594 27.8711 9.06558 27.8711Z" stroke="#FCFDFD" stroke-width="2.5" stroke-linecap="round" stroke-linejoin="round"/>
<path id="Vector_2" d="M22.2798 27.8711H26.9227C27.6131 27.8711 28.1727 27.3115 28.1727 26.6211V19.1211C28.1727 18.4307 27.6131 17.8711 26.9227 17.8711H22.2798C21.5895 17.8711 21.0298 18.4307 21.0298 19.1211V26.6211C21.0298 27.3115 21.5895 27.8711 22.2798 27.8711Z" stroke="#FCFDFD" stroke-width="2.5" stroke-linecap="round" stroke-linejoin="round"/>
<path id="Vector_3" d="M6.92273 17.8711V11.6211C6.92273 6.78861 10.8402 2.87109 15.6727 2.87109C20.5052 2.87109 24.4227 6.78861 24.4227 11.6211V17.8711" stroke="#FCFDFD" stroke-width="2.5" stroke-linecap="round" stroke-linejoin="round"/>
</g>
</svg>
