<svg width="37" height="37" viewBox="0 0 37 37" fill="none" xmlns="http://www.w3.org/2000/svg">
<circle cx="18.5" cy="18.5" r="18.5" fill="#D9D9D9"/>
<path d="M13.7143 29H10C9.44772 29 9 28.5523 9 28V22C9 21.4477 9.44772 21 10 21H13.7143C14.2666 21 14.7143 21.4477 14.7143 22V28C14.7143 28.5523 14.2666 29 13.7143 29Z" stroke="#3B4BC1" stroke-width="2" stroke-linecap="round" stroke-linejoin="round"/>
<path d="M24.2861 29H28.0004C28.5527 29 29.0004 28.5523 29.0004 28V22C29.0004 21.4477 28.5527 21 28.0004 21H24.2861C23.7338 21 23.2861 21.4477 23.2861 22V28C23.2861 28.5523 23.7338 29 24.2861 29Z" stroke="#3B4BC1" stroke-width="2" stroke-linecap="round" stroke-linejoin="round"/>
<path d="M12 21V16C12 12.134 15.134 9 19 9C22.866 9 26 12.134 26 16V21" stroke="#3B4BC1" stroke-width="2" stroke-linecap="round" stroke-linejoin="round"/>
</svg>
