<svg width="28" height="28" viewBox="0 0 28 28" fill="none" xmlns="http://www.w3.org/2000/svg">
<circle cx="13.9747" cy="14.1485" r="13.671" fill="#B3ADAD"/>
<path d="M21.3353 14.1483C21.3358 14.3268 21.29 14.5024 21.2024 14.658C21.1149 14.8136 20.9886 14.9439 20.8358 15.0363L11.366 20.8293C11.2064 20.9271 11.0235 20.9805 10.8363 20.9839C10.6492 20.9874 10.4644 20.9408 10.3013 20.8491C10.1397 20.7587 10.005 20.6269 9.91123 20.4673C9.81743 20.3076 9.76785 20.1259 9.76758 19.9407V8.3559C9.76785 8.17074 9.81743 7.98899 9.91123 7.82935C10.005 7.66971 10.1397 7.53793 10.3013 7.44757C10.4644 7.35578 10.6492 7.30921 10.8363 7.31268C11.0235 7.31615 11.2064 7.36952 11.366 7.46728L20.8358 13.2604C20.9886 13.3527 21.1149 13.483 21.2024 13.6386C21.29 13.7942 21.3358 13.9698 21.3353 14.1483Z" fill="black"/>
</svg>
