<svg width="37" height="37" viewBox="0 0 37 37" fill="none" xmlns="http://www.w3.org/2000/svg">
<circle cx="18.5" cy="18.5" r="18.5" fill="#D9D9D9"/>
<path d="M17.0761 10.1631C17.136 9.50438 17.6883 9 18.3497 9H19.6503C20.3117 9 20.864 9.50438 20.9239 10.1631C20.9731 10.7039 21.3623 11.1454 21.8708 11.336C22.0015 11.385 22.1307 11.4372 22.2582 11.4926C22.7613 11.7113 23.3531 11.6694 23.7745 11.3182C24.2953 10.8842 25.0611 10.9189 25.5404 11.3983L26.4584 12.3162C26.9154 12.7733 26.9485 13.5034 26.5347 13.9999C26.1901 14.4135 26.158 14.9974 26.3897 15.4834C26.49 15.6939 26.5816 15.9093 26.664 16.1292C26.8546 16.6377 27.2961 17.0269 27.8369 17.0761C28.4956 17.136 29 17.6883 29 18.3497V19.6503C29 20.3117 28.4956 20.864 27.8369 20.9239C27.2961 20.9731 26.8546 21.3623 26.664 21.8708C26.59 22.0682 26.5086 22.262 26.4202 22.4518C26.2053 22.913 26.2401 23.4637 26.5658 23.8546C26.962 24.33 26.9303 25.0291 26.4927 25.4667L25.4667 26.4927C25.0291 26.9303 24.33 26.962 23.8546 26.5658C23.4637 26.2401 22.913 26.2053 22.4518 26.4202C22.262 26.5086 22.0682 26.59 21.8708 26.664C21.3623 26.8546 20.9731 27.2961 20.9239 27.8369C20.864 28.4956 20.3117 29 19.6503 29H18.3497C17.6883 29 17.136 28.4956 17.0761 27.8369C17.0269 27.2961 16.6377 26.8546 16.1292 26.664C15.9093 26.5816 15.6939 26.49 15.4834 26.3897C14.9975 26.158 14.4135 26.1901 13.9999 26.5347C13.5034 26.9485 12.7732 26.9154 12.3162 26.4584L11.3983 25.5404C10.9189 25.0611 10.8842 24.2953 11.3182 23.7745C11.6694 23.3531 11.7113 22.7613 11.4926 22.2582C11.4372 22.1307 11.385 22.0016 11.336 21.8708C11.1454 21.3623 10.7039 20.9731 10.1631 20.9239C9.50438 20.864 9 20.3117 9 19.6503V18.3497C9 17.6883 9.50438 17.136 10.1631 17.0761C10.7039 17.0269 11.1454 16.6377 11.336 16.1292C11.3936 15.9755 11.4557 15.824 11.5221 15.6749C11.7571 15.1472 11.718 14.5226 11.3482 14.0788C10.8972 13.5376 10.9333 12.7418 11.4314 12.2436L12.2436 11.4315C12.7418 10.9333 13.5376 10.8972 14.0788 11.3482C14.5226 11.718 15.1472 11.7571 15.6749 11.5221C15.824 11.4557 15.9755 11.3936 16.1292 11.336C16.6377 11.1454 17.0269 10.7039 17.0761 10.1631Z" stroke="#3B4BC1" stroke-width="2" stroke-linecap="round" stroke-linejoin="round"/>
<path d="M22 19C22 20.6569 20.6569 22 19 22C17.3431 22 16 20.6569 16 19C16 17.3431 17.3431 16 19 16C20.6569 16 22 17.3431 22 19Z" stroke="#3B4BC1" stroke-width="2" stroke-linecap="round" stroke-linejoin="round"/>
</svg>
