<svg width="293" height="1024" viewBox="0 0 293 1024" fill="none" xmlns="http://www.w3.org/2000/svg">
<g clip-path="url(#clip0_248_8916)">
<rect width="293.226" height="1061" fill="#D9D9D9"/>
<circle cx="289.081" cy="686.956" r="59.0596" fill="#D9D9D9"/>
<g clip-path="url(#clip1_248_8916)">
<rect width="146.095" height="151.586" transform="translate(151.586) rotate(90)" fill="#E64A21"/>
<circle cx="12" cy="16" r="132" fill="#F0A202"/>
</g>
<rect width="146.095" height="151.586" transform="translate(151.586 146.095) rotate(90)" fill="#F6F8F9"/>
<circle cx="76.4666" cy="219.142" r="31.6021" transform="rotate(90 76.4666 219.142)" fill="#E64A21"/>
<circle cx="104.94" cy="331.06" r="16.0601" transform="rotate(90 104.94 331.06)" fill="#3B4BC1"/>
<circle cx="45.8198" cy="331.06" r="16.0601" transform="rotate(90 45.8198 331.06)" fill="#3B4BC1"/>
<circle cx="104.94" cy="400.18" r="16.0601" transform="rotate(90 104.94 400.18)" fill="#3B4BC1"/>
<circle cx="45.8198" cy="400.18" r="16.0601" transform="rotate(90 45.8198 400.18)" fill="#3B4BC1"/>
<g clip-path="url(#clip2_248_8916)">
<circle cx="146.5" cy="441.5" r="142.5" transform="rotate(90 146.5 441.5)" fill="#E64A21"/>
<circle cx="139.153" cy="445.537" r="59.0596" fill="#1E2C95"/>
</g>
<rect width="146.095" height="151.586" transform="translate(151.586 584.379) rotate(90)" fill="#F0A202"/>
<circle cx="104.94" cy="623.06" r="16.0601" transform="rotate(90 104.94 623.06)" fill="#FCFDFD"/>
<circle cx="45.8198" cy="623.06" r="16.0601" transform="rotate(90 45.8198 623.06)" fill="#FCFDFD"/>
<circle cx="104.94" cy="692.18" r="16.0601" transform="rotate(90 104.94 692.18)" fill="#FCFDFD"/>
<circle cx="45.8198" cy="692.18" r="16.0601" transform="rotate(90 45.8198 692.18)" fill="#FCFDFD"/>
<g clip-path="url(#clip3_248_8916)">
<circle cx="136.541" cy="740.775" r="134.282" transform="rotate(118.479 136.541 740.775)" fill="#E64A21"/>
</g>
<rect width="146.095" height="151.586" transform="translate(151.586 882.06) rotate(90)" fill="#1E2C95"/>
<g clip-path="url(#clip4_248_8916)">
<rect width="146.095" height="151.586" transform="translate(296.645) rotate(90)" fill="#F6F8F9"/>
<path d="M299.93 1.85778C281.032 -1.47391 261.703 -0.314672 243.248 5.25705C224.794 10.8288 207.646 20.6831 192.965 34.1533C178.283 47.6234 166.41 64.3953 158.149 83.3342C149.888 102.273 145.431 122.937 145.081 143.929C144.731 164.921 148.494 185.75 156.118 205.008C163.742 224.266 175.047 241.503 189.269 255.554C203.492 269.604 220.299 280.141 238.555 286.45C256.811 292.759 276.089 294.693 295.086 292.122L289.343 241.061C277.012 242.73 264.499 241.474 252.649 237.379C240.8 233.284 229.89 226.445 220.658 217.325C211.427 208.205 204.089 197.016 199.14 184.516C194.192 172.016 191.749 158.496 191.976 144.871C192.204 131.245 195.096 117.832 200.459 105.539C205.821 93.2464 213.527 82.36 223.057 73.6166C232.587 64.8733 243.717 58.477 255.696 54.8604C267.674 51.2439 280.221 50.4914 292.487 52.654L299.93 1.85778Z" fill="#162170"/>
</g>
<g clip-path="url(#clip5_248_8916)">
<path d="M153.285 114.003C146.414 132.05 143.801 151.256 145.62 170.322C147.44 189.388 153.651 207.868 163.833 224.514C174.014 241.159 187.929 255.581 204.636 266.803C221.343 278.026 240.453 285.788 260.672 289.563C280.891 293.339 301.748 293.04 321.832 288.688C341.915 284.335 360.758 276.03 377.084 264.335C393.41 252.639 406.839 237.826 416.463 220.897C426.087 203.968 431.68 185.319 432.865 166.21L387.011 163.76C386.204 176.775 382.394 189.477 375.839 201.007C369.285 212.537 360.138 222.626 349.019 230.592C337.899 238.558 325.066 244.214 311.387 247.178C297.708 250.143 283.503 250.346 269.732 247.775C255.961 245.203 242.946 239.917 231.567 232.273C220.188 224.63 210.71 214.807 203.776 203.47C196.841 192.133 192.611 179.546 191.372 166.561C190.132 153.575 191.912 140.494 196.592 128.202L153.285 114.003Z" fill="#162170"/>
</g>
<g clip-path="url(#clip6_248_8916)">
<circle cx="286.343" cy="423.239" r="134.282" transform="rotate(-151.521 286.343 423.239)" fill="#F6F8F9"/>
</g>
<rect width="146.095" height="151.586" transform="translate(296.645 438.284) rotate(90)" fill="#3B4BC1"/>
<g clip-path="url(#clip7_248_8916)">
<rect width="146.095" height="151.483" transform="matrix(0 -1 -1 0 296.645 730.474)" fill="white"/>
<ellipse cx="145.059" cy="150.239" rx="145.059" ry="150.239" transform="matrix(0 -1 -1 0 452.79 874.496)" fill="#D9D9D9"/>
<circle cx="87.0352" cy="87.0352" r="87.0352" transform="matrix(1 4.37114e-08 4.37114e-08 -1 209.299 818.545)" fill="white"/>
<ellipse cx="57.5054" cy="57.5054" rx="57.5054" ry="57.5054" transform="matrix(1 4.37114e-08 4.37114e-08 -1 239.347 788.497)" fill="#3B4BC1"/>
</g>
<g clip-path="url(#clip8_248_8916)">
<ellipse cx="145.059" cy="150.239" rx="145.059" ry="150.239" transform="matrix(-1 8.74228e-08 8.74228e-08 1 440.667 574.328)" fill="#F0A202"/>
<circle cx="87.0352" cy="87.0352" r="87.0352" transform="matrix(-4.37114e-08 -1 -1 4.37114e-08 384.716 817.82)" fill="white"/>
<ellipse cx="57.5054" cy="57.5054" rx="57.5054" ry="57.5054" transform="matrix(-4.37114e-08 -1 -1 4.37114e-08 354.668 787.772)" fill="#3B4BC1"/>
</g>
<g clip-path="url(#clip9_248_8916)">
<rect width="146.095" height="151.586" transform="translate(145.059 1028.05) rotate(-90)" fill="#3B4BC1"/>
<circle cx="293.343" cy="1018.01" r="134.282" transform="rotate(-151.521 293.343 1018.01)" fill="#E64A21"/>
</g>
</g>
<defs>
<clipPath id="clip0_248_8916">
<rect width="292.189" height="1061" fill="white"/>
</clipPath>
<clipPath id="clip1_248_8916">
<rect width="146.095" height="151.586" fill="white" transform="translate(151.586) rotate(90)"/>
</clipPath>
<clipPath id="clip2_248_8916">
<rect width="146.095" height="151.483" fill="white" transform="translate(151.586 438.284) rotate(90)"/>
</clipPath>
<clipPath id="clip3_248_8916">
<rect width="146.095" height="151.586" fill="white" transform="translate(151.586 882.06) rotate(-180)"/>
</clipPath>
<clipPath id="clip4_248_8916">
<rect width="146.095" height="151.586" fill="white" transform="translate(296.645) rotate(90)"/>
</clipPath>
<clipPath id="clip5_248_8916">
<rect width="146.095" height="151.586" fill="white" transform="translate(296.645 146.095) rotate(90)"/>
</clipPath>
<clipPath id="clip6_248_8916">
<rect width="146.095" height="151.586" fill="white" transform="matrix(0 -1 1 0 145.059 438.284)"/>
</clipPath>
<clipPath id="clip7_248_8916">
<rect width="146.095" height="151.483" fill="white" transform="matrix(0 -1 -1 0 296.645 730.474)"/>
</clipPath>
<clipPath id="clip8_248_8916">
<rect width="146.095" height="151.483" fill="white" transform="matrix(-1 8.74228e-08 8.74228e-08 1 296.645 730.474)"/>
</clipPath>
<clipPath id="clip9_248_8916">
<rect width="146.095" height="151.586" fill="white" transform="translate(145.059 1028.05) rotate(-90)"/>
</clipPath>
</defs>
</svg>
