<svg width="23" height="23" viewBox="0 0 23 23" fill="none" xmlns="http://www.w3.org/2000/svg">
<g id="entypo:light-up" clip-path="url(#clip0_784_5425)">
<path id="Vector" d="M21.85 10.5788H20.723C20.087 10.5788 19.573 10.9917 19.573 11.5C19.573 12.0071 20.087 12.4188 20.723 12.4188H21.85C22.4848 12.4188 23 12.0083 23 11.5C23 10.9928 22.4837 10.5788 21.85 10.5788ZM11.5 5.175C10.6687 5.17242 9.84503 5.33426 9.07648 5.6512C8.30793 5.96815 7.60964 6.43395 7.02179 7.02179C6.43395 7.60964 5.96815 8.30793 5.6512 9.07648C5.33426 9.84503 5.17242 10.6687 5.175 11.5C5.175 15.0086 7.99135 17.825 11.5 17.825C15.0075 17.825 17.825 15.0086 17.825 11.5C17.825 7.99135 15.0063 5.175 11.5 5.175ZM11.5 16.1C8.95735 16.1 6.9 14.0403 6.9 11.5C6.9 8.95735 8.95735 6.9 11.5 6.9C12.72 6.9 13.89 7.38464 14.7527 8.24731C15.6154 9.10998 16.1 10.28 16.1 11.5C16.1 12.72 15.6154 13.89 14.7527 14.7527C13.89 15.6154 12.72 16.1 11.5 16.1ZM3.45 11.5C3.45 10.9928 2.93365 10.5788 2.3 10.5788H1.15C0.51405 10.5788 0 10.9917 0 11.5C0 12.0071 0.51405 12.4188 1.15 12.4188H2.3C2.93365 12.4188 3.45 12.0071 3.45 11.5ZM11.5 3.45C12.0071 3.45 12.4188 2.93595 12.4188 2.3V1.15C12.4188 0.51405 12.0071 0 11.5 0C10.9917 0 10.5788 0.51405 10.5788 1.15V2.3C10.5788 2.93595 10.9917 3.45 11.5 3.45ZM11.5 19.55C10.9917 19.55 10.5788 20.064 10.5788 20.7V21.85C10.5788 22.4859 10.9917 23 11.5 23C12.0071 23 12.4188 22.4859 12.4188 21.85V20.7C12.4188 20.064 12.0071 19.55 11.5 19.55ZM19.9697 4.3309C20.4194 3.88125 20.4918 3.22575 20.133 2.86695C19.7743 2.50815 19.1176 2.58175 18.6702 3.0314L17.8652 3.83525C17.4156 4.2849 17.3431 4.9404 17.702 5.2992C18.0607 5.658 18.7174 5.5844 19.1659 5.13475L19.9697 4.3309ZM3.8341 17.8629L3.0291 18.6691C2.57945 19.1187 2.507 19.7719 2.8658 20.1307C3.2246 20.4895 3.88125 20.4182 4.3286 19.9686L5.1336 19.1648C5.58325 18.7151 5.6557 18.0596 5.2969 17.6996C4.9381 17.3397 4.28145 17.4156 3.8341 17.8629ZM4.32975 3.03025C3.88125 2.5806 3.2246 2.507 2.8658 2.8658C2.507 3.2246 2.5806 3.88125 3.02795 4.3309L3.83295 5.13475C4.2826 5.5844 4.93695 5.658 5.29575 5.2992C5.65455 4.9404 5.5821 4.28375 5.1336 3.83525L4.32975 3.03025ZM17.8641 19.1659L18.6691 19.9697C19.1187 20.4194 19.7731 20.4907 20.1319 20.1342C20.4907 19.7754 20.4182 19.1187 19.9686 18.6702L19.1648 17.8664C18.7151 17.4167 18.0596 17.3431 17.6996 17.702C17.3397 18.0607 17.4144 18.7162 17.8641 19.1659Z" fill="black"/>
</g>
<defs>
<clipPath id="clip0_784_5425">
<rect width="23" height="23" fill="white"/>
</clipPath>
</defs>
</svg>
