<svg width="37" height="37" viewBox="0 0 37 37" fill="none" xmlns="http://www.w3.org/2000/svg">
<circle cx="18.5" cy="18.5" r="18.5" fill="#E0E7EB"/>
<path d="M16 18C18.2091 18 20 16.2091 20 14C20 11.7909 18.2091 10 16 10C13.7909 10 12 11.7909 12 14C12 16.2091 13.7909 18 16 18Z" stroke="#3B4BC1" stroke-width="2" stroke-linecap="round" stroke-linejoin="round"/>
<path d="M9 28V24C9 22.8954 9.89543 22 11 22H21C22.1046 22 23 22.8954 23 24V28" stroke="#3B4BC1" stroke-width="2" stroke-linecap="round" stroke-linejoin="round"/>
<path d="M23 10C23.8604 10.2203 24.623 10.7207 25.1676 11.4223C25.7122 12.1239 26.0078 12.9868 26.0078 13.875C26.0078 14.7632 25.7122 15.6261 25.1676 16.3277C24.623 17.0293 23.8604 17.5297 23 17.75" stroke="#3B4BC1" stroke-width="2" stroke-linecap="round" stroke-linejoin="round"/>
<path d="M26 22H27C28.1046 22 29 22.8954 29 24V28" stroke="#3B4BC1" stroke-width="2" stroke-linecap="round" stroke-linejoin="round"/>
</svg>
