<svg width="25" height="24" viewBox="0 0 25 24" fill="none" xmlns="http://www.w3.org/2000/svg">
<g id="work-alt-bag">
<path id="Vector" d="M2.5 9C2.5 7.89543 3.39543 7 4.5 7H20.5C21.6046 7 22.5 7.89543 22.5 9V20C22.5 21.1046 21.6046 22 20.5 22H4.5C3.39543 22 2.5 21.1046 2.5 20V9Z" stroke="#303237" stroke-width="2" stroke-linecap="round" stroke-linejoin="round"/>
<path id="Vector_2" d="M16.5 7V4C16.5 2.89543 15.6046 2 14.5 2H10.5C9.39543 2 8.5 2.89543 8.5 4V7" stroke="#303237" stroke-width="2" stroke-linecap="round" stroke-linejoin="round"/>
<path id="Vector_3" d="M22.5 12L12.8922 13.9216C12.6333 13.9733 12.3667 13.9733 12.1078 13.9216L2.5 12" stroke="#303237" stroke-width="2" stroke-linecap="round" stroke-linejoin="round"/>
</g>
</svg>
