<svg width="25" height="24" viewBox="0 0 25 24" fill="none" xmlns="http://www.w3.org/2000/svg">
<path d="M2.10059 9C2.10059 7.89543 2.99602 7 4.10059 7H20.1006C21.2052 7 22.1006 7.89543 22.1006 9V20C22.1006 21.1046 21.2052 22 20.1006 22H4.10059C2.99602 22 2.10059 21.1046 2.10059 20V9Z" fill="#3B4BC1" stroke="#3B4BC1" stroke-width="2" stroke-linecap="round" stroke-linejoin="round"/>
<path d="M16.1006 7V4C16.1006 2.89543 15.2052 2 14.1006 2H10.1006C8.99602 2 8.10059 2.89543 8.10059 4V7" fill="#3B4BC1"/>
<path d="M16.1006 7V4C16.1006 2.89543 15.2052 2 14.1006 2H10.1006C8.99602 2 8.10059 2.89543 8.10059 4V7" stroke="#3B4BC1" stroke-width="2" stroke-linecap="round" stroke-linejoin="round"/>
<path d="M22.1006 12L12.4928 13.9216C12.2339 13.9733 11.9673 13.9733 11.7084 13.9216L2.10059 12" stroke="white" stroke-width="2" stroke-linecap="round" stroke-linejoin="round"/>
</svg>
